<svg id="Layer_1" data-name="Layer 1" xmlns="http://www.w3.org/2000/svg" viewBox="0 0 796 482"><defs><style>.cls-1{fill:#4d4d4d;}</style></defs><path class="cls-1" d="M262.71,180.47l-13.33,11.1L263.29,196Zm0,0-13.33,11.1L263.29,196Zm0,0-13.33,11.1L263.29,196Zm0,0-13.33,11.1L263.29,196ZM221.4,133.2l-10.3,8.57,10.74,3.39Zm41.31,47.27-13.33,11.1L263.29,196Zm0,0-13.33,11.1L263.29,196ZM221.4,133.2l-10.3,8.57,10.74,3.39Zm0,0-10.3,8.57,10.74,3.39Zm41.31,47.27-13.33,11.1L263.29,196Zm0,0-13.33,11.1L263.29,196ZM221.4,133.2l-10.3,8.57,10.74,3.39ZM765.19,405.26c-2.53-14.91-12.34-26.46-29.2-33.32-28.41-11.55-57.32-22.34-86.08-33.36a31.73,31.73,0,0,0-7.35-1.48q-53.82-6.81-107.68-13.53c-28.13-3.51-49.95-14.62-65.73-33.25Q404.5,214,339.86,137.59c-2.87-3.41-5.71-4.46-10.66-4.05a183.15,183.15,0,0,1-70.12-8c-22.71-7.09-37.39-20.83-46.42-38-5.89-11.19-9.12-23.24-13.49-34.93a41.6,41.6,0,0,1-1.38-5.35c-1.72-7.52-6.94-12.75-16.47-14.62-9.93-2-18.8.24-24.68,6.77C142.48,55.23,128,70.87,115.25,87.36c-19.66,25.51-33.88,53.05-44.54,81.7-.31.86-.55,1.74-1,3.33,14.23,4.55,27.9,9,41.65,13.29,16.1,5,27.7,13.52,34.42,26.23,1,1.89,4.34,3.75,7,4.24,53,9.56,100.57,27.65,141.86,55.42C308.62,281,321,292,334.3,302.09a26,26,0,0,0,9.54,4.81c47.24,10.6,93,23.9,134.42,45.16,21.54,11.07,42.18,23.26,64,33.9,38.86,18.91,79.85,34.15,125.56,39.81,29.57,3.67,58.65,2.74,86.71-6.5C766.55,415.32,766.9,415.37,765.19,405.26ZM288.44,153.8a3.29,3.29,0,0,1,4.05-1.63l19.37,6.11a1.35,1.35,0,0,0,1.72-.58l.33-.64,1.79.57-.47.93a3.28,3.28,0,0,1-4.08,1.58l-8-2.52-9.55,18.72c-.77,1.52-2.06,1.63-3.7,1.12l-1-.31,10.54-20.69L291.78,154a1.37,1.37,0,0,0-1.72.57l-.32.64L288,154.7Zm-53.27-3.88,5.73-11.25c.31-.61,0-1.12-.74-1.35l-.82-.26.72-1.41,2.58.81c1.59.5,2.78,1.7,2,3.18l-5.74,11.27c-3.11,6.18.44,8.9,3.62,9.91s7.36.64,9.61-2.56L259.42,144c.76-1.5,2.06-1.62,3.69-1.11l1,.31-10.25,20.12c-.31.61,0,1.11.73,1.35l.82.25-.72,1.42-2.57-.81c-1.64-.52-2.79-1.7-2-3.18l.12-.26a12.91,12.91,0,0,1-9.21.3C236.36,161,231.52,157.16,235.17,149.92ZM218.83,130.6l-.53-.17L219,129l4.21,1.32c1.3.41,2.07,1.07,2.08,2.15l.82,22.67c0,.41.29.65.81.82l.95.3-.72,1.41-2.57-.81c-1.35-.43-2.39-1.09-2.41-2.17l-.31-7.49-12.5-3.94-7.62,6.4-2.42-.76,20.18-17.06C220.17,131.32,219.61,130.85,218.83,130.6Zm-36.35-13.1,2.74.86c1.23.39,2.26,1.16,2.24,2.13l.6,21.44,20.21-16.3,2.46.78-22,17.85c-.78.69-1.76.76-3.15.32l-1.47-.47-.6-24.05c0-.4-.3-.69-.84-.86l-.89-.28Zm-14.92,52.82c-2.08,4.08-9,7.22-19.21,3.94-5.48-1.77-10.23-4.86-11.28-8.47-.29-.87.21-2,1.8-2.19l1.26-.18c.19,4.45,5,7.09,9.2,8.45,6.69,2.16,11.61.23,13.07-2.64,4.26-8.37-20.69-10.48-15.31-21,2.06-4,8.57-6.32,17.62-3.48,4.6,1.46,8.68,4.19,9.81,7.73.3.87-.19,2-1.81,2.23l-1.24.15c-.21-4.42-4.17-6.63-7.45-7.66-6.14-1.94-10.51-.23-11.72,2.14C148.38,157.23,173.2,159.26,167.56,170.32Zm29.72,18.88c-1.84-.58-2.56-1.34-3-2.63l-9.78-28.39-11.85,23.26-2.91-.93,13.27-26c.41-.79,0-1.45-.95-1.75L181,152.4l.93-1.84,3.13,1c1.8.57,2.94,1.46,3.38,2.76l9.72,28.26L210,159.4l3,.94-14.84,29.12Zm31.33,7.22a1.73,1.73,0,0,0,2.22-.75l.42-.83,2.34.73-.6,1.17a4.28,4.28,0,0,1-5.29,2L206,191.94l13.33-26.17c.36-.7-.06-1.32-1-1.6l-1.05-.34.93-1.83,26.92,8.49L244,172.78l-19.53-6.15-5.7,11.18,14.86,4.69-1.16,2.29-14.87-4.69L212,191.17Zm41.58,15.76-3.34-1.05c-1.74-.55-3.09-1.41-3.11-2.81l-.39-9.69-16.19-5.1-9.88,8.28-3.12-1,26.12-22.08c.84-.7.12-1.32-.89-1.64l-.69-.21.94-1.83,5.45,1.72c1.69.53,2.68,1.37,2.69,2.77l1.07,29.36c0,.52.37.83,1.06,1.05l1.21.39Zm-11.43-44.54L269,147.53c.31-.61,0-1.11-.74-1.35l-.81-.25.72-1.42,2.58.81c1.63.51,2.78,1.7,2,3.18L263.34,167l12.33,3.88a1.36,1.36,0,0,0,1.73-.57l.32-.65,1.8.57-.46.9a3.3,3.3,0,0,1-4,1.6Zm37.47,33.44,8.52,19.43a1.42,1.42,0,0,0,1,.74l1.11.35-.93,1.83-3.59-1.13a4,4,0,0,1-2.87-2.35l-7.89-17-6.18,1.77-4.08,8c-1,2-2.69,2.14-4.86,1.46l-1.21-.38,13.27-26.05c.4-.78,0-1.45-.95-1.74l-1.06-.34.94-1.82,3.33,1c2.11.67,3.61,2.2,2.63,4.11l-6.23,12.24,28.19-8.59,4.13,1.3Zm-46.85-9.51L263.29,196l-.58-15.49Zm-27.54-46.41-.44-12-10.3,8.57Zm-.44-12-10.3,8.57,10.74,3.39Zm41.31,47.27-13.33,11.1L263.29,196Zm0,0-13.33,11.1L263.29,196ZM221.4,133.2l-10.3,8.57,10.74,3.39Zm41.31,47.27-13.33,11.1L263.29,196Zm0,0-13.33,11.1L263.29,196Zm0,0-13.33,11.1L263.29,196Zm0,0-13.33,11.1L263.29,196Zm0,0-13.33,11.1L263.29,196Zm0,0-13.33,11.1L263.29,196Z"/><path class="cls-1" d="M284.49,288.2c-39-26.42-83.62-44.13-135-53.37-4.59,25.58-9.07,50.56-13.65,76.11l233.07,74.27C369.93,368.56,322,313.57,284.49,288.2Zm-90.12,21.35c-6,.2-11.56-2.9-12.35-7.76a175.84,175.84,0,0,1-2.14-21.68c-.17-5.2,4.24-8.54,10.58-9.1,6.09-.55,10.92,2.29,13,8.76.58,6,1.63,13.41,1.89,20.84C205.5,305.42,200.1,309.36,194.37,309.55Zm53,16.89c-5.69.23-11.22-2.85-11.91-7.46a214,214,0,0,1-2.08-22.29c-.21-4.57,3.54-7.27,8.21-8.63,6.95-1.31,13.81,1.71,14.75,7a163.88,163.88,0,0,1,2.33,22.82C258.84,322.71,253.63,326.19,247.37,326.44Z"/><path class="cls-1" d="M495.4,181.25c-6.51-6.83-11.83-12.76-17.71-18.33-1.28-1.21-4.52-1.5-6.89-1.58-12-.37-24.06-.48-36.09-.8-9.26-.25-14.76-4-14.45-9.72.31-5.84,5.83-9.16,15.23-9,6.24.07,12.48.27,18.73.4.67,0,1.35-.08,2-.13-4.92-12.67-26.15-24.15-45.53-23.68-7.69.18-15.44,2.07-22.9,3.84-8.61,2-16.94,4.84-26.09,7.5,6.52,7.74,13,15.44,19.49,23.12C416.51,194.48,452,236,487,277.84c13.2,15.78,30.86,25.06,54.67,27.75,27,3.06,53.92,6.7,82.47,10.28-2.2-2.44-3.56-4-5-5.52-9-9.46-17.9-19-27.3-28.26a15.24,15.24,0,0,0-9-3.62c-19.64-.72-39.31-1-59-1.36-5.38-.11-10.17-1.06-12.78-5.22-4.25-6.77,1.68-13.56,12.11-13.5,13.66.07,27.31.51,41,.77,1.53,0,3.07-.08,5.67-.17-6.07-6.4-11.29-12.35-17.22-17.82-1.54-1.42-5.3-1.79-8.07-1.88-16.88-.5-33.77-.7-50.65-1.16-9.33-.26-14.4-4-14-9.94.33-5.5,5.84-8.69,14.91-8.57q18,.24,36,.51c.17,0,.35-.21,1.15-.71-5.58-5.87-11-11.89-16.94-17.56-1.27-1.2-4.53-1.47-6.9-1.54-15-.44-30.1-.43-45.1-1.22-3.86-.21-8.75-2.06-11-4.43-5.54-5.75.34-13.85,9.82-13.93C472.4,180.65,483,181,495.4,181.25Z"/><path class="cls-1" d="M755,441.12c-18.33,1.81-36.77,4.74-55.31,5.21-36,.91-70.05-6.8-103.12-17.43-41.28-13.27-78.46-31.93-114.4-52.49-34.94-20-73.76-34.21-114.94-44.43-1.3-.33-2.65-.51-5-1,5.77,8.16,11.72,15.47,16.3,23.28,7,11.88,12.77,24.18,19.54,36.14a14.46,14.46,0,0,0,7.44,6.24q88.76,28.6,177.78,56.71c47.66,14.93,96.4,16.23,145.86,5.89C742.36,456.51,752.78,451.83,755,441.12Z"/><path class="cls-1" d="M113.12,303.89C116.5,285,119.72,267,123,249c.94-5.22,2-10.44,2.85-15.67,2.25-13.26-5.46-24.31-21-29.55-12.34-4.16-24.88-8-37.34-11.93-.85-.27-1.74-.45-3.23-.83l-2.27,6.78c-5.2,15.41-14.49,29.11-27.68,41.22-7.62,7-8,11-1.3,18.57C47.3,273.93,67.31,285,89,294.44,96.46,297.69,104.29,300.45,113.12,303.89Z"/><path class="cls-1" d="M457.44,112.1c-2.64-6.22-5.1-12.18-7.68-18.09-5.18-11.88-10.45-23.73-15.64-35.6-2.39-5.46-6-7.3-13.06-6.49-36.6,4.23-61,27.48-59.72,57.82,5.34-1.46,10.54-2.59,15.45-4.27,27.75-9.48,54-8,78.59,6.36A8.44,8.44,0,0,0,457.44,112.1Z"/></svg>